<?xml version="1.0" standalone="no"?>
<!DOCTYPE svg PUBLIC "-//W3C//DTD SVG 1.1//EN" "http://www.w3.org/Graphics/SVG/1.1/DTD/svg11.dtd" >
<svg xmlns="http://www.w3.org/2000/svg">
<metadata>Generated by IcoMoon</metadata>
<defs>
<font id="icomoon" horiz-adv-x="1024">
<font-face units-per-em="1024" ascent="960" descent="-64" />
<missing-glyph horiz-adv-x="1024" />
<glyph unicode="&#x20;" horiz-adv-x="512" d="" />
<glyph unicode="&#xe600;" glyph-name="c-cart" d="M651.947 287.573c-30.72 0-56.32-25.6-56.32-56.32s25.6-56.32 56.32-56.32 56.32 25.6 56.32 56.32c0 30.72-25.6 56.32-56.32 56.32zM360.107 260.267c-23.893 0-42.667-18.773-42.667-42.667s18.773-42.667 42.667-42.667 42.667 18.773 42.667 42.667-18.773 42.667-42.667 42.667zM793.6 674.987l-75.093-17.067c0 0 0 0-6.827 11.947s-17.067 0-17.067 0l-5.12-13.653-455.68-58.027 42.667-233.813h389.12v-44.373h-392.533c-15.36-11.947 1.707-23.893 1.707-23.893s389.12 0 401.067 0 11.947 11.947 11.947 11.947l23.893 332.8c0 0 69.973 11.947 76.8 13.653s15.36 5.12 15.36 13.653c3.413 6.827-10.24 6.827-10.24 6.827zM259.413 582.827l68.267 5.12 1.707-93.867-51.2-1.707-18.773 90.453zM293.547 388.267l-11.947 88.747h51.2l5.12-88.747h-44.373zM442.027 388.267h-88.747l-5.12 88.747h95.573v-88.747zM442.027 495.787l-95.573 1.707v95.573l95.573 11.947v-109.227zM587.093 388.267h-126.293v88.747h126.293v-88.747zM587.093 494.080h-126.293v112.64l126.293 15.36v-128zM674.133 388.267h-63.147l-1.707 88.747h73.387l-8.533-88.747zM682.667 495.787h-75.093l-3.413 126.293 80.213 13.653-1.707-139.947zM512 888.32c-244.053 0-440.32-196.267-440.32-440.32s197.973-440.32 440.32-440.32 440.32 196.267 440.32 440.32c0 244.053-196.267 440.32-440.32 440.32zM512 45.227c-221.867 0-402.773 180.907-402.773 402.773s180.907 402.773 402.773 402.773 402.773-180.907 402.773-402.773c0-221.867-180.907-402.773-402.773-402.773z" />
<glyph unicode="&#xe601;" glyph-name="c-computer" d="M512 888.32c-244.053 0-440.32-196.267-440.32-440.32s197.973-440.32 440.32-440.32 440.32 196.267 440.32 440.32c0 244.053-196.267 440.32-440.32 440.32zM512 45.227c-221.867 0-402.773 180.907-402.773 402.773s180.907 402.773 402.773 402.773 402.773-180.907 402.773-402.773c0-221.867-180.907-402.773-402.773-402.773zM730.453 698.88h-436.907c-37.547 0-68.267-30.72-68.267-68.267v-257.707c0-37.547 30.72-68.267 68.267-68.267h150.187c0 0 11.947-23.893 3.413-54.613s-51.2-22.187-51.2-22.187v-30.72h240.64v29.013c0 0-37.547-10.24-49.493 23.893-10.24 27.307 1.707 51.2 3.413 54.613h141.653c37.547 0 68.267 30.72 68.267 68.267v257.707c-1.707 37.547-32.427 68.267-69.973 68.267zM757.76 360.96c0-8.533-8.533-17.067-17.067-17.067h-453.973c-8.533 0-17.067 8.533-17.067 17.067v281.6c0 8.533 8.533 17.067 17.067 17.067h455.68c8.533 0 17.067-8.533 17.067-17.067v-281.6z" />
<glyph unicode="&#xe602;" glyph-name="c-content" d="M447.147 379.733c11.947-6.827 20.48-3.413 25.6 0s97.28 187.733 97.28 187.733 6.827 15.36-6.827 25.6c-13.653 8.533-25.6 0-29.013-5.12-3.413-6.827-95.573-184.32-95.573-184.32s-8.533-15.36 8.533-23.893zM580.267 304.64c11.947-6.827 20.48-3.413 25.6 0s97.28 187.733 97.28 187.733 6.827 15.36-6.827 25.6c-13.653 8.533-25.6 0-29.013-5.12-3.413-6.827-97.28-184.32-97.28-184.32s-6.827-15.36 10.24-23.893zM628.053 550.4c-13.653 8.533-25.6 0-29.013-5.12s-95.573-184.32-95.573-184.32-8.533-15.36 8.533-23.893c11.947-6.827 20.48-3.413 25.6 0s97.28 187.733 97.28 187.733 6.827 15.36-6.827 25.6zM249.173 203.947h174.080v13.653h-174.080v-13.653zM704.853 673.28c-122.88 54.613-165.547-29.013-165.547-29.013l215.040-116.053-139.947-266.24-88.747-20.48-122.88 66.56 34.133-102.4 191.147 47.787 146.773 285.013c10.24 87.040-69.973 134.827-69.973 134.827zM512 888.32c-244.053 0-440.32-196.267-440.32-440.32s197.973-440.32 440.32-440.32c244.053 0 440.32 197.973 440.32 440.32 0 244.053-196.267 440.32-440.32 440.32zM512 45.227c-221.867 0-402.773 180.907-402.773 402.773s180.907 402.773 402.773 402.773 402.773-180.907 402.773-402.773c0-221.867-180.907-402.773-402.773-402.773z" />
<glyph unicode="&#xe603;" glyph-name="c-cust-service" d="M389.12 480.427c8.533-18.773 37.547-109.227 121.173-109.227s116.053 95.573 121.173 104.107c3.413 8.533 54.613 71.68 8.533 87.040 0 0 5.12 27.307 3.413 59.733s-15.36 112.64-126.293 112.64c-110.933 0-145.067-69.973-134.827-175.787 0 0-8.533 25.6-15.36 29.013v58.027c0 0 1.707 30.72 23.893 52.907s56.32 56.32 117.76 56.32c61.44 0 117.76-34.133 138.24-76.8 15.36-32.427 10.24-61.44 10.24-97.28 0 0 0-8.533 10.24-8.533s8.533 11.947 8.533 11.947v59.733c0 0 0 39.253-32.427 73.387-30.72 35.84-83.627 58.027-134.827 58.027-49.493 0-122.88-22.187-157.013-102.4-3.413-8.533-5.12-23.893-5.12-32.427s0-54.613 0-54.613-34.133-3.413-11.947-56.32c22.187-54.613 30.72-51.2 54.613-49.493zM397.653 548.693c6.827-10.24 11.947-22.187 11.947-22.187s-18.773 49.493-6.827 76.8c11.947 27.307 34.133 51.2 51.2 47.787 0 0 32.427-59.733 165.547-61.44-1.707-20.48-8.533-58.027-8.533-58.027s10.24 23.893 20.48 17.067 13.653-23.893-11.947-56.32c-11.947-20.48-35.84-104.107-107.52-104.107-46.080 0-73.387 27.307-95.573 68.267 13.653-11.947 49.493-32.427 81.92-32.427s34.133 13.653 34.133 18.773-3.413 15.36-23.893 15.36c-20.48 0-30.72 0-30.72-10.24-17.067 3.413-40.96 10.24-73.387 40.96 0 8.533-6.827 39.253-13.653 47.787-10.24 11.947 0 22.187 6.827 11.947zM694.613 343.893l-93.867 23.893c0 0 5.12-109.227-93.867-160.427 0 0-104.107 75.093-88.747 163.84 0 0-93.867-23.893-112.64-30.72-17.067-6.827-69.973-22.187-68.267-93.867 0 0 92.16-124.587 274.773-124.587s269.653 117.76 269.653 117.76 22.187 73.387-87.040 104.107zM529.067 354.133h-39.253l-17.067-22.187 20.48-23.893-20.48-42.667 39.253-40.96 34.133 39.253-18.773 49.493 18.773 20.48-17.067 20.48zM512 888.32c-244.053 0-440.32-196.267-440.32-440.32s197.973-440.32 440.32-440.32 440.32 196.267 440.32 440.32c0 244.053-196.267 440.32-440.32 440.32zM512 45.227c-221.867 0-402.773 180.907-402.773 402.773s180.907 402.773 402.773 402.773 402.773-180.907 402.773-402.773c0-221.867-180.907-402.773-402.773-402.773z" />
<glyph unicode="&#xe604;" glyph-name="c-email" d="M464.213 700.587l-232.107-167.253v-320.853h559.787v300.373c0 0-194.56 146.773-245.76 187.733-44.373 35.84-81.92 0-81.92 0zM252.587 483.84l221.867-117.76-221.867-117.76v235.52zM525.653 504.32l17.067 8.533 15.36-58.027c1.707-3.413 1.707-6.827 1.707-6.827s1.707-1.707 1.707-1.707c1.707 0 1.707 0 3.413 0 1.707 1.707 5.12 3.413 6.827 8.533s3.413 10.24 3.413 17.067c0 6.827-1.707 13.653-5.12 20.48-5.12 10.24-10.24 17.067-18.773 23.893s-17.067 8.533-27.307 10.24c-10.24 0-20.48-1.707-30.72-5.12-10.24-5.12-20.48-11.947-25.6-20.48-6.827-8.533-10.24-18.773-11.947-30.72s1.707-22.187 5.12-32.427c5.12-10.24 11.947-20.48 20.48-27.307s18.773-10.24 30.72-11.947 22.187 1.707 34.133 6.827c6.827 3.413 11.947 6.827 17.067 11.947s8.533 11.947 13.653 20.48l17.067 8.533c-3.413-11.947-6.827-20.48-10.24-25.6-3.413-6.827-8.533-11.947-13.653-17.067-1.707-1.707-5.12-3.413-6.827-5.12l-17.067-11.947c-10.24-3.413-22.187-5.12-34.133-3.413-13.653 1.707-27.307 6.827-37.547 13.653-11.947 8.533-20.48 18.773-25.6 30.72-5.12 13.653-8.533 27.307-6.827 40.96s6.827 27.307 13.653 37.547c8.533 11.947 18.773 18.773 32.427 25.6 18.773 8.533 35.84 8.533 54.613 3.413 17.067-6.827 30.72-17.067 37.547-32.427 5.12-11.947 6.827-22.187 5.12-32.427s-5.12-20.48-13.653-29.013c-5.12-6.827-10.24-10.24-15.36-13.653-3.413-1.707-6.827-1.707-10.24-1.707-1.707 0-3.413 1.707-5.12 5.12-3.413-8.533-8.533-13.653-15.36-17.067-8.533-3.413-17.067-3.413-25.6 0s-15.36 10.24-20.48 20.48c-5.12 11.947-6.827 22.187-3.413 34.133s10.24 20.48 22.187 25.6c5.12 1.707 10.24 3.413 13.653 3.413 5.12 0 8.533-1.707 13.653-5.12v11.947zM283.307 241.493l228.693 122.88 225.28-122.88h-453.973zM761.173 246.613l-218.453 116.053 218.453 116.053v-232.107zM667.307 448v71.68l-1.707 1.707h1.707l-75.093 59.733h-197.973v-157.013l-141.653 76.8 221.867 165.547c0 0 34.133 20.48 61.44 0 20.48-15.36 225.28-170.667 225.28-170.667l-93.867-47.787zM501.76 465.067c-1.707-5.12-1.707-11.947 1.707-17.067 1.707-5.12 5.12-8.533 10.24-10.24 3.413-1.707 8.533-1.707 13.653 0s8.533 6.827 10.24 11.947 1.707 11.947-1.707 17.067c-1.707 5.12-5.12 8.533-10.24 10.24-3.413 1.707-8.533 1.707-11.947 0-6.827-1.707-10.24-6.827-11.947-11.947zM512 888.32c-244.053 0-440.32-196.267-440.32-440.32s196.267-440.32 440.32-440.32c244.053 0 440.32 197.973 440.32 440.32s-196.267 440.32-440.32 440.32zM512 45.227c-221.867 0-402.773 180.907-402.773 402.773s180.907 402.773 402.773 402.773c221.867 0 402.773-180.907 402.773-402.773s-180.907-402.773-402.773-402.773z" />
<glyph unicode="&#xe605;" glyph-name="c-keyword" d="M512 888.32c-244.053 0-440.32-196.267-440.32-440.32s197.973-440.32 440.32-440.32c244.053 0 440.32 197.973 440.32 440.32 0 244.053-196.267 440.32-440.32 440.32zM512 45.227c-221.867 0-402.773 180.907-402.773 402.773s180.907 402.773 402.773 402.773c221.867 0 402.773-180.907 402.773-402.773s-180.907-402.773-402.773-402.773zM460.8 599.893c-22.187 0-40.96-18.773-40.96-40.96 0-8.533 1.707-15.36 6.827-22.187l-64.853-58.027 10.24-11.947 5.12 5.12 10.24-11.947 6.827 6.827-10.24 13.653 5.12 5.12 6.827-8.533 6.827 6.827-6.827 8.533 39.253 35.84c6.827-5.12 15.36-8.533 23.893-8.533 22.187 0 40.96 18.773 40.96 40.96 1.707 22.187-17.067 39.253-39.253 39.253zM460.8 533.333c-13.653 0-23.893 10.24-23.893 23.893s10.24 23.893 23.893 23.893c13.653 0 23.893-10.24 23.893-23.893s-10.24-23.893-23.893-23.893zM597.333 398.507c-1.707 1.707-18.773 3.413-23.893 1.707l-32.427 32.427c22.187 25.6 35.84 58.027 35.84 95.573 0 80.213-64.853 145.067-145.067 145.067s-145.067-64.853-145.067-145.067c0-80.213 64.853-145.067 145.067-145.067 37.547 0 73.387 15.36 98.987 39.253l32.427-32.427c-1.707-6.827 0-22.187 3.413-23.893l139.947-139.947c3.413-3.413 6.827-3.413 10.24 0l23.893 23.893c3.413 3.413 3.413 6.827 0 10.24l-143.36 138.24zM431.787 424.107c-56.32 0-104.107 46.080-104.107 104.107 0 56.32 46.080 104.107 104.107 104.107 56.32 0 104.107-46.080 104.107-104.107-1.707-58.027-47.787-104.107-104.107-104.107z" />
<glyph unicode="&#xe606;" glyph-name="c-local-dir" d="M512 888.32c-244.053 0-440.32-196.267-440.32-440.32s197.973-440.32 440.32-440.32c244.053 0 440.32 197.973 440.32 440.32 0 244.053-196.267 440.32-440.32 440.32zM512 45.227c-221.867 0-402.773 180.907-402.773 402.773s180.907 402.773 402.773 402.773c221.867 0 402.773-180.907 402.773-402.773s-180.907-402.773-402.773-402.773zM677.547 704c-30.72 0-58.027-11.947-80.213-32.427-34.133 17.067-73.387 27.307-112.64 27.307-139.947 0-254.293-114.347-254.293-254.293s114.347-252.587 254.293-252.587 254.293 114.347 254.293 254.293c0 15.36-1.707 30.72-3.413 44.373 34.133 23.893 59.733 52.907 59.733 98.987-1.707 63.147-52.907 114.347-117.76 114.347zM698.027 407.040c-1.707-6.827-8.533-1.707-10.24-6.827s-1.707-10.24-3.413-15.36c-1.707-6.827-15.36 0-25.6-13.653-8.533-13.653 1.707-22.187-1.707-29.013-3.413-5.12-17.067-5.12-18.773-13.653-3.413-17.067 13.653-20.48 8.533-25.6-39.253-44.373-97.28-73.387-160.427-73.387-117.76 0-215.040 95.573-215.040 215.040 0 23.893 3.413 47.787 11.947 69.973 0 0 13.653-3.413 25.6-11.947 5.12-3.413 6.827-11.947 8.533-34.133 0-5.12 10.24-3.413 20.48-13.653 5.12-5.12-3.413-42.667 3.413-47.787 1.707-1.707 6.827-8.533 15.36-17.067 8.533-6.827 18.773-11.947 22.187-17.067 1.707-1.707 8.533-5.12 1.707-39.253-1.707-10.24 8.533-6.827 11.947-17.067 3.413-11.947-1.707-27.307 3.413-39.253 5.12-15.36 20.48-25.6 25.6-25.6s11.947 6.827 8.533 17.067c-1.707 6.827-13.653 15.36-11.947 23.893 3.413 15.36 18.773 6.827 23.893 15.36 8.533 11.947 25.6 18.773 30.72 27.307 1.707 5.12-3.413 18.773 0 23.893 5.12 11.947 27.307 20.48 42.667 35.84 17.067 15.36 13.653 35.84 6.827 42.667s-29.013 0-30.72 13.653c-3.413 15.36-18.773 17.067-34.133 15.36s-23.893 0-23.893 11.947c0 17.067-22.187 17.067-32.427 17.067-8.533 0-11.947-5.12-18.773-11.947-6.827-5.12-23.893-1.707-27.307 0-6.827 3.413-10.24 22.187-13.653 25.6-8.533 15.36-23.893 17.067-27.307 29.013-3.413 10.24 5.12 27.307 15.36 30.72 8.533 3.413 22.187-8.533 34.133-3.413 23.893 8.533 11.947 25.6 20.48 30.72 10.24 5.12 29.013-1.707 35.84 3.413s-1.707 15.36 6.827 18.773c13.653 5.12 35.84-3.413 35.84 8.533s-68.267 10.24-64.853 13.653c0 0 1.707 0 1.707 1.707 6.827 3.413 11.947 5.12 18.773 6.827 5.12 1.707 13.653 0 18.773 1.707s6.827 5.12 11.947 6.827c11.947 1.707 25.6 3.413 37.547 3.413 30.72 0 59.733-6.827 87.040-18.773-8.533-15.36-13.653-34.133-13.653-52.907 0-39.253 0-192.853 0-192.853s104.107 51.2 129.707 64.853c3.413 1.707 6.827 3.413 10.24 6.827 0-6.827 1.707-15.36 1.707-22.187 0-13.653 0-27.307-3.413-39.253zM677.547 523.093c-37.547 0-68.267 30.72-68.267 68.267s30.72 68.267 68.267 68.267 68.267-30.72 68.267-68.267c0-35.84-30.72-68.267-68.267-68.267zM384 541.867c-8.533 3.413-15.36 15.36-25.6 11.947-10.24-1.707-13.653-10.24-13.653-10.24-5.12-18.773 13.653-18.773 20.48-20.48 10.24-1.707 30.72-5.12 39.253-3.413 10.24 1.707 6.827 13.653 3.413 18.773-5.12 5.12-15.36 0-23.893 3.413z" />
<glyph unicode="&#xe607;" glyph-name="c-mobile" d="M629.76 680.107h-237.227c0 0-17.067 0-17.067-20.48 0-18.773 0-426.667 0-426.667s3.413-15.36 20.48-15.36 233.813 0 233.813 0 17.067 3.413 17.067 23.893 0 418.133 0 418.133 1.707 20.48-17.067 20.48zM494.933 645.973h56.32v-11.947h-56.32v11.947zM481.28 649.387c5.12 0 8.533-3.413 8.533-8.533s-3.413-8.533-8.533-8.533c-5.12 0-8.533 3.413-8.533 8.533s3.413 8.533 8.533 8.533zM512 222.72c-13.653 0-23.893 10.24-23.893 23.893s10.24 23.893 23.893 23.893 23.893-10.24 23.893-23.893-10.24-23.893-23.893-23.893zM626.347 280.747h-228.693v337.92h228.693v-337.92zM512 888.32c-244.053 0-440.32-196.267-440.32-440.32s196.267-440.32 440.32-440.32c244.053 0 440.32 197.973 440.32 440.32s-196.267 440.32-440.32 440.32zM512 45.227c-221.867 0-402.773 180.907-402.773 402.773s180.907 402.773 402.773 402.773c221.867 0 402.773-180.907 402.773-402.773s-180.907-402.773-402.773-402.773z" />
<glyph unicode="&#xe608;" glyph-name="c-press-release" d="M597.333 323.413h-182.613c0 0-11.947 0-11.947-10.24s11.947-11.947 11.947-11.947h182.613c0 0 13.653 0 13.653 8.533 0 13.653-13.653 13.653-13.653 13.653zM597.333 415.573h-182.613c0 0-11.947 0-11.947-10.24s11.947-11.947 11.947-11.947h182.613c0 0 13.653 0 13.653 8.533 0 11.947-13.653 13.653-13.653 13.653zM658.773 347.307c0 0 54.613 0 69.973 0s20.48 20.48 20.48 20.48 0 71.68 0 85.333-18.773 18.773-18.773 18.773-56.32 0-73.387 0-18.773-18.773-18.773-18.773 1.707-71.68 1.707-85.333 18.773-20.48 18.773-20.48zM597.333 369.493h-182.613c0 0-11.947 0-11.947-10.24s11.947-11.947 11.947-11.947h182.613c0 0 13.653 0 13.653 8.533 0 11.947-13.653 13.653-13.653 13.653zM745.813 323.413h-97.28c0 0-6.827 0-6.827-10.24s6.827-11.947 6.827-11.947h97.28c0 0 6.827 0 6.827 8.533 0 13.653-6.827 13.653-6.827 13.653zM493.227 550.4c18.773 1.707 15.36-8.533 15.36-8.533v-35.84h20.48c0 0 0 25.6 0 34.133s0 11.947-5.12 13.653-6.827 1.707-6.827 6.827c0 3.413 5.12 3.413 5.12 3.413s6.827 3.413 6.827 18.773c0 17.067-17.067 23.893-17.067 23.893h-39.253v-100.693h20.48v44.373zM493.227 591.36c0 0 17.067 1.707 17.067-11.947 0-15.36-17.067-11.947-17.067-11.947v23.893zM418.133 546.987h20.48c0 0 23.893 1.707 20.48 34.133-3.413 30.72-30.72 27.307-63.147 27.307v-100.693h22.187v39.253zM414.72 562.347v27.307c0 0 18.773 0 18.773-13.653s-18.773-13.653-18.773-13.653zM786.773 681.813c-20.48 0-421.547 0-421.547 0s-17.067-1.707-17.067-20.48 0-42.667 0-42.667h-52.907c0 0-8.533 10.24-30.72 10.24-20.48 0-49.493-20.48-49.493-47.787 0-29.013 0-293.547 0-293.547s10.24-71.68 76.8-71.68c0 0 34.133-1.707 47.787 10.24h426.667c0 0 42.667 1.707 42.667 47.787s0 394.24 0 394.24-3.413 13.653-22.187 13.653zM349.867 270.507c0 0-8.533-30.72-54.613-30.72s-54.613 51.2-54.613 56.32c0 5.12 0 276.48 0 276.48s1.707 13.653 11.947 22.187c10.24 8.533 30.72 8.533 39.253-10.24v-235.52c0 0 0-18.773 13.653-18.773s44.373 0 44.373 0v-59.733zM349.867 359.253c-3.413 0-32.427 0-32.427 0v235.52h32.427c0 0 1.707-235.52 0-235.52zM781.653 275.627c0 0-1.707-27.307-20.48-27.307s-390.827 0-390.827 0-5.12 3.413 0 10.24c5.12 6.827 3.413 29.013 3.413 61.44s0 336.213 0 336.213h407.893v-380.587zM600.747 526.507h-30.72v20.48h30.72v18.773h-30.72v22.187h30.72v18.773h-51.2v-104.107h51.2v23.893zM655.36 504.32c37.547 0 35.84 40.96 18.773 51.2s-42.667 25.6-25.6 37.547c0 0 17.067 5.12 13.653-18.773h20.48c0 0 6.827 32.427-25.6 32.427s-34.133-17.067-34.133-27.307c0-10.24 10.24-18.773 23.893-30.72 13.653-10.24 22.187-30.72 6.827-30.72-6.827 0-6.827 13.653-5.12 17.067h-25.6c0 3.413-5.12-30.72 32.427-30.72zM414.72 465.067c0 0-11.947 0-11.947-10.24s11.947-11.947 11.947-11.947h182.613c0 0 13.653 0 13.653 8.533 0 11.947-13.653 13.653-13.653 13.653h-182.613zM733.867 504.32c37.547 0 35.84 40.96 18.773 51.2s-42.667 23.893-25.6 37.547c0 0 17.067 5.12 13.653-18.773h20.48c0 0 6.827 32.427-25.6 32.427s-34.133-17.067-34.133-27.307c0-10.24 10.24-18.773 23.893-30.72 13.653-10.24 22.187-30.72 6.827-30.72-6.827 0-6.827 13.653-5.12 17.067h-27.307c0 3.413-3.413-30.72 34.133-30.72zM512 888.32c-244.053 0-440.32-196.267-440.32-440.32s196.267-440.32 440.32-440.32c244.053 0 440.32 197.973 440.32 440.32s-196.267 440.32-440.32 440.32zM512 45.227c-221.867 0-402.773 180.907-402.773 402.773s180.907 402.773 402.773 402.773c221.867 0 402.773-180.907 402.773-402.773s-180.907-402.773-402.773-402.773z" />
<glyph unicode="&#xe609;" glyph-name="c-reporting" d="M677.547 538.453v-267.947h54.613v262.827l-29.013 29.013-25.6-23.893zM512 413.867l192.853 175.787 27.307-30.72v93.867h-97.28l39.253-35.84-162.133-145.067-98.987 104.107-116.053-97.28v-58.027l110.933 95.573 104.107-102.4zM607.573 270.507v208.213l-54.613-54.613v-153.6h54.613zM266.24 671.573h-17.067v-447.147h525.653v15.36h-508.587v431.787zM344.747 442.88l-47.787-47.787v-124.587h47.787v172.373zM407.893 270.507h58.027v160.427l-58.027 58.027v-218.453zM512 888.32c-244.053 0-440.32-196.267-440.32-440.32s196.267-440.32 440.32-440.32c244.053 0 440.32 197.973 440.32 440.32s-196.267 440.32-440.32 440.32zM512 45.227c-221.867 0-402.773 180.907-402.773 402.773s180.907 402.773 402.773 402.773c221.867 0 402.773-180.907 402.773-402.773s-180.907-402.773-402.773-402.773z" />
<glyph unicode="&#xe60a;" glyph-name="c-search" d="M682.667 389.973c-1.707 3.413-17.067 5.12-22.187 3.413l-22.187 40.96c39.253 27.307 66.56 71.68 66.56 124.587 0 83.627-68.267 150.187-150.187 150.187-27.307 0-52.907-6.827-75.093-20.48h-209.92c-18.773 0-34.133-15.36-34.133-34.133v-430.080c0-18.773 15.36-34.133 34.133-34.133h274.773l83.627 83.627v145.067l18.773-34.133c-3.413-3.413-10.24-18.773-6.827-22.187l104.107-174.080c1.707-3.413 5.12-3.413 8.533-1.707l32.427 18.773c3.413 1.707 3.413 5.12 1.707 8.533l-104.107 175.787zM605.867 279.040l-44.373-1.707c-10.24 0-17.067-6.827-17.067-17.067l1.707-44.373h-264.533c-10.24 0-17.067 8.533-17.067 17.067v413.013c0 8.533 6.827 17.067 17.067 17.067h163.84c-25.6-27.307-42.667-64.853-42.667-104.107 0-83.627 68.267-150.187 150.187-150.187 18.773 0 35.84 3.413 51.2 10.24v-139.947zM554.667 465.067c-51.2 0-92.16 40.96-92.16 92.16s40.96 92.16 92.16 92.16 92.16-40.96 92.16-92.16c0-49.493-40.96-92.16-92.16-92.16zM512 888.32c-244.053 0-440.32-196.267-440.32-440.32s196.267-440.32 440.32-440.32c244.053 0 440.32 197.973 440.32 440.32s-196.267 440.32-440.32 440.32zM512 45.227c-221.867 0-402.773 180.907-402.773 402.773s180.907 402.773 402.773 402.773c221.867 0 402.773-180.907 402.773-402.773s-180.907-402.773-402.773-402.773z" />
<glyph unicode="&#xe60b;" glyph-name="c-seo" d="M706.56 618.667c-78.507 0-139.947-63.147-139.947-139.947 0-34.133 11.947-64.853 32.427-88.747-1.707 0-1.707-1.707-3.413-1.707 0 0-22.187 13.653-42.667-11.947s-133.12-141.653-133.12-141.653-18.773-23.893 6.827-47.787c25.6-23.893 49.493 0 49.493 0l136.533 141.653c0 0 17.067 13.653 10.24 35.84 0 0 1.707 0 1.707 1.707 23.893-17.067 51.2-27.307 83.627-27.307 78.507 0 139.947 63.147 139.947 139.947s-63.147 139.947-141.653 139.947zM706.56 374.613c-56.32 0-102.4 46.080-102.4 102.4s46.080 102.4 102.4 102.4c56.32 0 102.4-46.080 102.4-102.4s-44.373-102.4-102.4-102.4zM546.133 437.76h-93.867v30.72h78.507v40.96h-78.507v27.307h93.867v51.2h-158.72v-191.147h158.72v40.96zM317.44 509.44c-30.72 5.12-63.147 8.533-68.267 20.48s6.827 17.067 17.067 17.067c10.24 0 17.067-5.12 23.893-17.067h59.733c0 0-6.827 61.44-81.92 61.44s-87.040-51.2-87.040-61.44c0-10.24 1.707-42.667 44.373-52.907s64.853-18.773 64.853-27.307-6.827-11.947-17.067-11.947c-11.947 0-27.307 6.827-30.72 22.187h-64.853c0 0-3.413-69.973 90.453-69.973s90.453 54.613 90.453 66.56c-1.707 11.947-11.947 46.080-40.96 52.907zM645.12 536.747c-47.787-52.907-18.773-104.107-3.413-114.347 0 0-23.893 131.413 116.053 122.88 0 0-64.853 44.373-112.64-8.533zM512 888.32c-244.053 0-440.32-196.267-440.32-440.32s196.267-440.32 440.32-440.32c244.053 0 440.32 197.973 440.32 440.32s-196.267 440.32-440.32 440.32zM512 45.227c-221.867 0-402.773 180.907-402.773 402.773s180.907 402.773 402.773 402.773c221.867 0 402.773-180.907 402.773-402.773s-180.907-402.773-402.773-402.773z" />
<glyph unicode="&#xe60c;" glyph-name="c-social" d="M477.867 564.053h78.507v13.653c0 0 0 61.44-52.907 61.44-46.080 0-257.707 0-257.707 0s-52.907-5.12-52.907-61.44c0-63.147 0-163.84 0-163.84s-6.827-54.613 49.493-54.613h30.72l46.080-69.973-10.24 73.387h105.813c0 1.707 0 126.293 0 141.653 0 22.187 27.307 59.733 63.147 59.733zM360.107 577.707c0 0-13.653 0-23.893 0s-10.24-10.24-10.24-10.24v-22.187h29.013v-37.547h-29.013v-105.813h-44.373v104.107h-22.187v37.547h23.893c0 0 0 17.067 0 37.547 0 47.787 76.8 32.427 76.8 32.427v-35.84zM735.573 499.2l-23.893-13.653c0 0-20.48 22.187-49.493 8.533s-20.48-46.080-20.48-46.080-44.373-3.413-83.627 42.667c0 0-5.12 8.533-6.827-6.827l-3.413 1.707c0 0-6.827-25.6 15.36-44.373 0 0-13.653-1.707-17.067 3.413 0 0-3.413-30.72 29.013-37.547 0 0 5.12-5.12-11.947-3.413 0 0-6.827-13.653 30.72-30.72 0 0-15.36-23.893-52.907-11.947 0 0 3.413-23.893 64.853-22.187s116.053 47.787 112.64 121.173c0 0 11.947 8.533 18.773 18.773h-15.36l13.653 20.48zM773.12 550.4c0 0-230.4 0-281.6 0-58.027 0-58.027-58.027-58.027-58.027v-143.36c0-66.56 63.147-59.733 63.147-59.733h208.213l-8.533-68.267 49.493 66.56h32.427c52.907 0 52.907 61.44 52.907 61.44s0 73.387 0 133.12c0 68.267-58.027 68.267-58.027 68.267zM814.080 366.080c0 0 0-61.44-52.907-61.44h-25.6l-18.773-32.427 3.413 34.133h-206.507c0 0-63.147-6.827-63.147 59.733v109.227c0 0 0 58.027 58.027 58.027 51.2 0 247.467 0 247.467 0s58.027 0 58.027-68.267c0-59.733 0-98.987 0-98.987zM512 888.32c-244.053 0-440.32-196.267-440.32-440.32s196.267-440.32 440.32-440.32c244.053 0 440.32 197.973 440.32 440.32s-196.267 440.32-440.32 440.32zM512 45.227c-221.867 0-402.773 180.907-402.773 402.773s180.907 402.773 402.773 402.773c221.867 0 402.773-180.907 402.773-402.773s-180.907-402.773-402.773-402.773z" />
<glyph unicode="&#xe60d;" glyph-name="c-videos" d="M276.48 517.973c-34.133 0-63.147-29.013-63.147-63.147s29.013-63.147 63.147-63.147 63.147 29.013 63.147 63.147-29.013 63.147-63.147 63.147zM401.067 495.787c-23.893 0-42.667-18.773-42.667-42.667s18.773-42.667 42.667-42.667 42.667 18.773 42.667 42.667c0 23.893-18.773 42.667-42.667 42.667zM401.067 425.813c-13.653 0-23.893 10.24-23.893 23.893s10.24 23.893 23.893 23.893c13.653 0 23.893-10.24 23.893-23.893 1.707-11.947-10.24-23.893-23.893-23.893zM397.653 512.853c34.133 0 63.147 29.013 63.147 63.147s-29.013 63.147-63.147 63.147c-34.133 0-63.147-29.013-63.147-63.147 0-35.84 29.013-63.147 63.147-63.147zM815.787 234.667c-1.707 1.707-69.973-22.187-116.053 20.48-46.080 40.96-66.56 121.173-69.973 141.653 0 1.707-1.707 8.533-1.707 10.24 1.707 15.36 5.12 30.72 5.12 46.080 0 128-104.107 232.107-232.107 232.107s-233.813-105.813-233.813-233.813c0-128 104.107-232.107 232.107-232.107 97.28 0 180.907 58.027 215.040 143.36 0 0 1.707 5.12 5.12-5.12 8.533-20.48 22.187-88.747 80.213-129.707 46.080-32.427 121.173-8.533 121.173-6.827-1.707 6.827-1.707 8.533-5.12 13.653zM399.36 239.787c-117.76 0-213.333 95.573-213.333 213.333s95.573 213.333 213.333 213.333 213.333-95.573 213.333-213.333-95.573-213.333-213.333-213.333zM397.653 391.68c-34.133 0-63.147-29.013-63.147-63.147s29.013-63.147 63.147-63.147c34.133 0 63.147 29.013 63.147 63.147s-27.307 63.147-63.147 63.147zM460.8 454.827c0-34.133 29.013-63.147 63.147-63.147s63.147 29.013 63.147 63.147-29.013 63.147-63.147 63.147-63.147-29.013-63.147-63.147zM512 888.32c-244.053 0-440.32-196.267-440.32-440.32s197.973-440.32 440.32-440.32 440.32 196.267 440.32 440.32c0 244.053-196.267 440.32-440.32 440.32zM512 45.227c-221.867 0-402.773 180.907-402.773 402.773s180.907 402.773 402.773 402.773 402.773-180.907 402.773-402.773c0-221.867-180.907-402.773-402.773-402.773z" />
<glyph unicode="&#xe60e;" glyph-name="cart" d="M821.76 732.16l-84.48-17.92c0 0 0 0-7.68 12.8s-20.48 0-20.48 0l-5.12-15.36-517.12-66.56 48.64-263.68 440.32-2.56v-51.2h-445.44c-17.92-12.8 2.56-25.6 2.56-25.6s440.32 0 455.68 0 12.8 12.8 12.8 12.8l28.16 376.32c0 0 79.36 12.8 87.040 15.36s17.92 5.12 17.92 15.36-12.8 10.24-12.8 10.24zM215.040 627.2l76.8 5.12v-104.96h-56.32l-20.48 99.84zM256 404.48l-12.8 102.4h56.32l5.12-102.4h-48.64zM422.4 404.48h-102.4l-5.12 102.4h107.52v-102.4zM422.4 527.36h-107.52v107.52l107.52 12.8v-120.32zM588.8 404.48h-143.36v102.4h143.36v-102.4zM588.8 527.36h-143.36v128l143.36 17.92v-145.92zM686.080 404.48h-71.68l-2.56 102.4h81.92l-7.68-102.4zM696.32 527.36h-84.48l-2.56 143.36 92.16 15.36-5.12-158.72zM378.88 212.48c0-26.863-21.777-48.64-48.64-48.64s-48.64 21.777-48.64 48.64c0 26.863 21.777 48.64 48.64 48.64s48.64-21.777 48.64-48.64zM724.48 227.84c0-35.346-28.654-64-64-64s-64 28.654-64 64c0 35.346 28.654 64 64 64s64-28.654 64-64z" />
<glyph unicode="&#xe60f;" glyph-name="computer" d="M839.68 824.32h-655.36c-56.32 0-102.4-46.080-102.4-102.4v-386.56c0-56.32 46.080-102.4 102.4-102.4h225.28c0 0 17.92-35.84 5.12-81.92s-76.8-33.28-76.8-33.28v-46.080h360.96v43.52c0 0-56.32-15.36-74.24 35.84-15.36 40.96 2.56 76.8 5.12 81.92h212.48c56.32 0 102.4 46.080 102.4 102.4v386.56c-2.56 56.32-48.64 102.4-104.96 102.4zM880.64 317.44c0-12.8-10.24-25.6-25.6-25.6h-680.96c-12.8 0-25.6 12.8-25.6 25.6v422.4c0 12.8 12.8 25.6 25.6 25.6h683.52c15.36 0 25.6-12.8 25.6-25.6v-422.4z" />
<glyph unicode="&#xe610;" glyph-name="content" d="M345.6 235.52l184.32-99.84 133.12 30.72 209.92 399.36-320 176.64c0 0 64 125.44 248.32 43.52 0 0 122.88-69.12 102.4-204.8l-220.16-427.52-286.72-71.68-51.2 153.6zM117.76 102.4h261.12v-20.48h-261.12v20.48zM399.36 381.44c0 0-10.24-23.040 12.8-35.84 17.92-10.24 30.72-5.12 38.4 0s145.92 281.6 145.92 281.6 10.24 23.040-10.24 38.4c-20.48 12.8-38.4 0-43.52-7.68s-143.36-276.48-143.36-276.48zM499.2 317.44c0 0-10.24-23.040 12.8-35.84 17.92-10.24 30.72-5.12 38.4 0s145.92 281.6 145.92 281.6 10.24 23.040-10.24 38.4c-20.48 12.8-38.4 0-43.52-7.68-5.12-10.24-143.36-276.48-143.36-276.48zM599.040 268.8c0 0-10.24-23.040 12.8-35.84 17.92-10.24 30.72-5.12 38.4 0s145.92 281.6 145.92 281.6 10.24 23.040-10.24 38.4c-20.48 12.8-38.4 0-43.52-7.68-2.56-10.24-143.36-276.48-143.36-276.48z" />
<glyph unicode="&#xe611;" glyph-name="cust-service" d="M373.76 332.8c0 0-140.8-35.84-168.96-46.080-25.6-10.24-104.96-33.28-102.4-140.8 0 0 138.24-186.88 412.16-186.88s404.48 176.64 404.48 176.64 30.72 110.080-133.12 158.72l-140.8 35.84c0 0 7.68-163.84-140.8-240.64 2.56-2.56-153.6 110.080-130.56 243.2zM478.72 307.2h58.88l25.6-28.16-28.16-33.28 28.16-74.24-51.2-58.88-58.88 58.88 33.28 66.56-33.28 35.84zM757.76 650.24v89.6c0 0 0 58.88-48.64 110.080-46.080 53.76-125.44 87.040-202.24 87.040-74.24 0-184.32-33.28-235.52-153.6-5.12-12.8-7.68-35.84-7.68-48.64s0-81.92 0-81.92-51.2-5.12-17.92-84.48c30.72-79.36 46.080-76.8 81.92-71.68 12.8-28.16 56.32-163.84 181.76-163.84 122.88-2.56 174.080 143.36 181.76 156.16 5.12 12.8 81.92 107.52 12.8 130.56 0 0 7.68 40.96 5.12 89.6s-23.040 168.96-189.44 168.96-217.6-104.96-202.24-263.68c0 0-12.8 38.4-23.040 43.52v84.48c0 0 2.56 46.080 35.84 79.36s84.48 84.48 176.64 84.48c92.16 0 176.64-51.2 207.36-115.2 23.040-48.64 15.36-92.16 15.36-145.92 0 0 0-12.8 15.36-12.8 15.36-2.56 12.8 17.92 12.8 17.92zM340.48 599.040c10.24-15.36 17.92-33.28 17.92-33.28s-28.16 74.24-10.24 115.2c17.92 40.96 51.2 76.8 76.8 71.68 0 0 48.64-89.6 248.32-92.16-2.56-30.72-12.8-87.040-12.8-87.040s15.36 35.84 30.72 25.6c15.36-10.24 20.48-35.84-17.92-84.48-17.92-30.72-53.76-156.16-161.28-156.16-69.12 0-110.080 40.96-143.36 102.4 20.48-17.92 74.24-48.64 122.88-48.64s51.2 20.48 51.2 28.16c0 10.24-5.12 23.040-35.84 23.040s-46.080 0-46.080-15.36c-25.6 5.12-61.44 15.36-110.080 61.44 0 12.8-10.24 58.88-20.48 71.68-15.36 17.92 0 33.28 10.24 17.92z" />
<glyph unicode="&#xe612;" glyph-name="email" d="M563.2 801.28c-66.56 53.76-125.44 0-125.44 0l-345.6-250.88v-478.72h839.68v448c0 0-291.84 220.16-368.64 281.6zM122.88 476.16l332.8-176.64-332.8-176.64v353.28zM168.96 112.64l343.040 184.32 337.92-184.32h-680.96zM885.76 120.32l-327.68 174.080 327.68 174.080v-348.16zM524.8 312.32h-51.2l-350.72 189.44 332.8 248.32c0 0 51.2 30.72 92.16 0 30.72-23.040 337.92-256 337.92-256l-360.96-181.76zM632.32 622.080h-296.96v-248.32l145.92-69.12h58.88l204.8 107.52v117.76l-112.64 92.16zM624.64 378.88c-5.12-10.24-12.8-17.92-20.48-25.6s-17.92-15.36-30.72-17.92c-20.48-7.68-40.96-12.8-61.44-10.24s-40.96 10.24-56.32 20.48c-17.92 12.8-30.72 28.16-38.4 46.080-7.68 20.48-12.8 40.96-10.24 61.44s10.24 40.96 20.48 56.32c12.8 17.92 28.16 28.16 48.64 38.4 28.16 12.8 53.76 12.8 81.92 5.12 25.6-10.24 46.080-25.6 56.32-48.64 7.68-17.92 10.24-33.28 7.68-48.64s-7.68-30.72-20.48-43.52c-7.68-10.24-15.36-15.36-23.040-20.48-5.12-2.56-10.24-2.56-15.36-2.56-2.56 0-5.12 2.56-7.68 7.68-5.12-12.8-12.8-20.48-23.040-25.6-12.8-5.12-25.6-5.12-38.4 0s-23.040 15.36-30.72 30.72c-7.68 17.92-10.24 33.28-5.12 51.2s15.36 30.72 33.28 38.4c7.68 2.56 15.36 5.12 20.48 5.12 7.68 0 12.8-2.56 20.48-7.68l-2.56 15.36 25.6 12.8 23.040-87.040c2.56-5.12 2.56-10.24 2.56-10.24s2.56-2.56 2.56-2.56c2.56 0 2.56 0 5.12 0 2.56 2.56 7.68 5.12 10.24 12.8s5.12 15.36 5.12 25.6c0 10.24-2.56 20.48-7.68 30.72-7.68 15.36-15.36 25.6-28.16 35.84s-25.6 12.8-40.96 15.36c-15.36 0-30.72-2.56-46.080-7.68-15.36-7.68-30.72-17.92-38.4-30.72-10.24-12.8-15.36-28.16-17.92-46.080s2.56-33.28 7.68-48.64c7.68-15.36 17.92-30.72 30.72-40.96s28.16-15.36 46.080-17.92 33.28 2.56 51.2 10.24c10.24 5.12 17.92 10.24 25.6 17.92s12.8 17.92 20.48 30.72l25.6 12.8c0-15.36-2.56-28.16-7.68-38.4zM529.92 465.92c-5.12 2.56-12.8 2.56-17.92 0-7.68-2.56-12.8-10.24-15.36-17.92s-2.56-17.92 2.56-25.6c2.56-7.68 7.68-12.8 15.36-15.36 5.12-2.56 12.8-2.56 20.48 0s12.8 10.24 15.36 17.92 2.56 17.92-2.56 25.6c-7.68 7.68-12.8 12.8-17.92 15.36zM632.32 622.080l15.36-99.84 97.28 10.24z" />
<glyph unicode="&#xe613;" glyph-name="keyword" d="M849.92 163.84l-209.92 209.92c-2.56 2.56-28.16 5.12-35.84 2.56l-48.64 48.64c33.28 38.4 53.76 87.040 53.76 143.36 0 120.32-97.28 217.6-217.6 217.6s-217.6-97.28-217.6-217.6 97.28-217.6 217.6-217.6c56.32 0 110.080 23.040 148.48 58.88l48.64-48.64c-2.56-10.24 0-33.28 5.12-35.84l209.92-209.92c5.12-5.12 10.24-5.12 15.36 0l35.84 35.84c0 2.56 0 7.68-5.12 12.8zM391.68 412.16c-84.48 0-156.16 69.12-156.16 156.16s69.12 156.16 156.16 156.16 156.16-69.12 156.16-156.16-71.68-156.16-156.16-156.16zM435.2 675.84c-33.28 0-61.44-28.16-61.44-61.44 0-12.8 2.56-23.040 10.24-33.28l-97.28-87.040 15.36-17.92 7.68 7.68 15.36-17.92 10.24 10.24-15.36 20.48 7.68 7.68 10.24-12.8 10.24 10.24-10.24 12.8 58.88 53.76c10.24-7.68 23.040-12.8 35.84-12.8 33.28 0 61.44 28.16 61.44 61.44s-25.6 58.88-58.88 58.88zM435.2 576c-20.48 0-35.84 15.36-35.84 35.84s15.36 35.84 35.84 35.84 35.84-15.36 35.84-35.84c0-17.92-15.36-35.84-35.84-35.84z" />
<glyph unicode="&#xe614;" glyph-name="local-dir" d="M320 588.8c-12.8 5.12-23.040 23.040-38.4 17.92-15.36-2.56-20.48-15.36-20.48-15.36-7.68-28.16 20.48-28.16 30.72-30.72 15.36-2.56 46.080-7.68 58.88-5.12 15.36 2.56 10.24 20.48 5.12 28.16-7.68 7.68-23.040 0-35.84 5.12zM934.4 657.92c0 97.28-76.8 174.080-174.080 174.080-46.080 0-87.040-17.92-120.32-48.64-51.2 25.6-110.080 40.96-168.96 40.96-209.92 0-381.44-171.52-381.44-381.44s171.52-378.88 381.44-378.88 381.44 171.52 381.44 381.44c0 23.040-2.56 46.080-5.12 66.56 51.2 35.84 87.040 76.8 87.040 145.92zM791.040 386.56c-2.56-10.24-12.8-2.56-15.36-10.24s-2.56-15.36-5.12-23.040c-2.56-10.24-23.040 0-38.4-20.48-12.8-20.48 2.56-33.28-2.56-43.52-5.12-7.68-25.6-7.68-28.16-20.48-5.12-25.6 20.48-30.72 12.8-38.4-58.88-66.56-145.92-110.080-240.64-110.080-176.64 2.56-320 145.92-320 325.12 0 35.84 5.12 71.68 17.92 104.96 0 0 20.48-5.12 38.4-17.92 7.68-5.12 10.24-17.92 12.8-51.2 0-7.68 15.36-5.12 30.72-20.48 7.68-7.68-5.12-64 5.12-71.68 2.56-2.56 10.24-12.8 23.040-25.6 12.8-10.24 28.16-17.92 33.28-25.6 2.56-2.56 12.8-7.68 2.56-58.88-2.56-15.36 12.8-10.24 17.92-25.6 5.12-17.92-2.56-40.96 5.12-58.88 7.68-23.040 30.72-38.4 38.4-38.4s17.92 10.24 12.8 25.6c-2.56 10.24-20.48 23.040-17.92 35.84 5.12 23.040 28.16 10.24 35.84 23.040 12.8 17.92 38.4 28.16 46.080 40.96 2.56 7.68-5.12 28.16 0 35.84 7.68 17.92 40.96 30.72 64 53.76 25.6 23.040 20.48 53.76 10.24 64s-43.52 0-46.080 20.48c-5.12 23.040-28.16 25.6-51.2 23.040s-35.84 0-35.84 17.92c0 25.6-33.28 25.6-48.64 25.6-12.8 0-17.92-7.68-28.16-17.92-12.8-7.68-38.4-5.12-43.52-2.56-10.24 5.12-15.36 33.28-20.48 38.4-12.8 23.040-35.84 25.6-40.96 43.52-5.12 15.36 7.68 40.96 23.040 46.080 12.8 5.12 33.28-12.8 51.2-5.12 35.84 12.8 17.92 38.4 30.72 46.080 15.36 7.68 43.52-2.56 53.76 5.12s-2.56 23.040 10.24 28.16c20.48 7.68 53.76-5.12 53.76 12.8s-102.4 15.36-97.28 20.48c0 0 2.56 0 2.56 2.56 10.24 5.12 17.92 7.68 28.16 10.24 7.68 2.56 20.48 0 28.16 2.56s10.24 7.68 17.92 10.24c17.92 2.56 38.4 5.12 56.32 5.12 46.080 0 89.6-10.24 130.56-28.16-12.8-23.040-20.48-51.2-20.48-79.36 0-58.88 0-289.28 0-289.28s156.16 76.8 194.56 97.28c5.12 2.56 10.24 5.12 15.36 10.24 0-10.24 2.56-23.040 2.56-33.28 0-20.48 0-40.96-5.12-58.88zM760.32 563.2c-56.32 0-102.4 46.080-102.4 102.4s46.080 102.4 102.4 102.4 102.4-46.080 102.4-102.4c0-56.32-46.080-102.4-102.4-102.4z" />
<glyph unicode="&#xe615;" glyph-name="mobile" d="M688.64 796.16h-355.84c0 0-25.6 0-25.6-30.72 0-28.16 0-640 0-640s5.12-23.040 30.72-23.040 350.72 0 350.72 0 25.6 5.12 25.6 35.84 0 627.2 0 627.2 2.56 30.72-25.6 30.72zM486.4 744.96h84.48v-17.92h-84.48v17.92zM465.92 750.080c7.68 0 12.8-5.12 12.8-12.8s-5.12-12.8-12.8-12.8c-7.68 0-12.8 5.12-12.8 12.8s5.12 12.8 12.8 12.8zM512 110.080c-20.48 0-35.84 15.36-35.84 35.84s15.36 35.84 35.84 35.84 35.84-15.36 35.84-35.84c0-20.48-15.36-35.84-35.84-35.84zM683.52 197.12h-343.040v506.88h343.040v-506.88z" />
<glyph unicode="&#xe616;" glyph-name="press-release" d="M924.16 798.72c-30.72 0-632.32 0-632.32 0s-25.6-2.56-25.6-30.72 0-64 0-64h-79.36c0 0-12.8 15.36-46.080 15.36-30.72 0-74.24-30.72-74.24-71.68 0-43.52 0-440.32 0-440.32s15.36-107.52 115.2-107.52c0 0 51.2-2.56 71.68 15.36h640c0 0 64 2.56 64 69.12 0 69.12 0 591.36 0 591.36s-5.12 23.040-33.28 23.040zM268.8 181.76c0 0-12.8-43.52-81.92-43.52s-84.48 74.24-84.48 81.92c0 7.68 0 414.72 0 414.72s2.56 20.48 17.92 33.28c15.36 12.8 46.080 12.8 58.88-15.36v-353.28c0 0 0-28.16 20.48-28.16s66.56 0 66.56 0v-89.6zM268.8 314.88c-5.12 0-48.64 0-48.64 0v353.28h48.64c0 0 2.56-353.28 0-353.28zM916.48 189.44c0 0-2.56-40.96-30.72-40.96s-586.24 0-586.24 0-7.68 5.12 0 15.36c7.68 10.24 5.12 43.52 5.12 92.16s0 504.32 0 504.32h611.84v-570.88zM701.44 453.12c0 0 2.56 28.16 28.16 28.16s110.080 0 110.080 0 28.16-5.12 28.16-28.16c0-20.48 0-128 0-128s-5.12-30.72-30.72-30.72c-23.040 0-104.96 0-104.96 0s-28.16 5.12-28.16 28.16-2.56 130.56-2.56 130.56zM366.080 473.6h273.92c0 0 20.48 0 20.48-20.48 0-15.36-20.48-12.8-20.48-12.8h-273.92c0 0-17.92 2.56-17.92 17.92 0 12.8 17.92 15.36 17.92 15.36zM366.080 399.36h273.92c0 0 20.48 0 20.48-20.48 0-15.36-20.48-12.8-20.48-12.8h-273.92c0 0-17.92 2.56-17.92 17.92s17.92 15.36 17.92 15.36zM366.080 330.24h273.92c0 0 20.48 0 20.48-20.48 0-15.36-20.48-12.8-20.48-12.8h-273.92c0 0-17.92 2.56-17.92 17.92 0 12.8 17.92 15.36 17.92 15.36zM366.080 261.12h273.92c0 0 20.48 0 20.48-20.48 0-12.8-20.48-12.8-20.48-12.8h-273.92c0 0-17.92 2.56-17.92 17.92s17.92 15.36 17.92 15.36zM714.24 261.12h145.92c0 0 10.24 0 10.24-20.48 0-15.36-10.24-12.8-10.24-12.8h-145.92c0 0-10.24 2.56-10.24 17.92 2.56 15.36 10.24 15.36 10.24 15.36zM570.88 688.64h74.24v-30.72h-43.52v-33.28h43.52v-28.16h-43.52v-30.72h43.52v-33.28h-74.24zM737.28 640h30.72c0 0 10.24 48.64-38.4 48.64s-51.2-25.6-51.2-40.96 15.36-28.16 35.84-46.080c20.48-15.36 33.28-46.080 10.24-46.080-10.24 0-10.24 20.48-7.68 25.6h-38.4c0 0-5.12-51.2 51.2-51.2s53.76 61.44 28.16 76.8c-25.6 15.36-64 38.4-38.4 56.32-2.56 5.12 25.6 12.8 17.92-23.040zM855.040 640h30.72c0 0 10.24 48.64-38.4 48.64s-51.2-25.6-51.2-40.96 15.36-28.16 35.84-46.080c20.48-15.36 33.28-46.080 10.24-46.080-10.24 0-10.24 20.48-7.68 25.6h-40.96c0 0-5.12-51.2 51.2-51.2s53.76 61.44 28.16 76.8c-25.6 15.36-64 35.84-38.4 56.32 0 5.12 28.16 12.8 20.48-23.040zM529.92 606.72c-7.68 2.56-10.24 2.56-10.24 10.24 0 5.12 7.68 5.12 7.68 5.12s10.24 5.12 10.24 28.16c0 25.6-25.6 35.84-25.6 35.84h-58.88v-151.040h30.72v66.56c28.16 2.56 23.040-12.8 23.040-12.8v-53.76h30.72c0 0 0 38.4 0 51.2s2.56 17.92-7.68 20.48zM483.84 624.64v38.4c0 0 25.6 2.56 25.6-17.92 0-25.6-25.6-20.48-25.6-20.48zM430.080 645.12c-5.12 46.080-46.080 40.96-94.72 40.96v-151.040h33.28v58.88h30.72c2.56 2.56 35.84 5.12 30.72 51.2zM366.080 619.52v40.96c0 0 28.16 0 28.16-20.48s-28.16-20.48-28.16-20.48z" />
<glyph unicode="&#xe617;" glyph-name="reporting" d="M117.76 783.36v-670.72h788.48v23.040h-762.88v647.68zM189.44 181.76h71.68v258.56l-71.68-71.68zM355.84 181.76h87.040v240.64l-87.040 87.040zM570.88 181.76h84.48v312.32l-81.92-81.92zM760.32 181.76h79.36v394.24l-43.52 43.52-35.84-35.84zM189.44 407.040v87.040l174.080 145.92 148.48-156.16 243.2 217.6-58.88 56.32h143.36v-140.8l-38.4 43.52-289.28-263.68-156.16 153.6z" />
<glyph unicode="&#xe618;" glyph-name="search" d="M924.16 99.84l-156.16 261.12c-2.56 5.12-25.6 7.68-33.28 5.12l-33.28 61.44c58.88 40.96 99.84 107.52 99.84 186.88 0 125.44-102.4 225.28-225.28 225.28-40.96 0-79.36-10.24-112.64-30.72h-314.88c-28.16 0-51.2-23.040-51.2-51.2v-645.12c0-28.16 23.040-51.2 51.2-51.2h412.16l125.44 125.44v217.6l28.16-51.2c-5.12-5.12-15.36-28.16-10.24-33.28l156.16-261.12c2.56-5.12 7.68-5.12 12.8-2.56l48.64 28.16c5.12 5.12 5.12 10.24 2.56 15.36zM576 752.64c76.8 0 138.24-61.44 138.24-138.24s-61.44-138.24-138.24-138.24-140.8 61.44-140.8 138.24c0 76.8 64 138.24 140.8 138.24zM652.8 194.56l-66.56-2.56c-15.36 0-25.6-10.24-25.6-25.6l2.56-66.56h-396.8c-15.36 0-25.6 12.8-25.6 25.6v619.52c0 12.8 10.24 25.6 25.6 25.6h245.76c-38.4-40.96-64-97.28-64-156.16 0-125.44 102.4-225.28 225.28-225.28 28.16 0 53.76 5.12 76.8 15.36v-209.92z" />
<glyph unicode="&#xe619;" glyph-name="seo" d="M176.64 647.68h89.6c0 0-10.24 92.16-122.88 92.16s-130.56-76.8-130.56-92.16c0-15.36 2.56-64 66.56-79.36 66.56-15.36 99.84-25.6 99.84-40.96s-10.24-17.92-25.6-17.92c-17.92 0-40.96 10.24-46.080 33.28h-99.84c0 0-5.12-104.96 135.68-104.96s133.12 81.92 133.12 99.84c0 17.92-12.8 69.12-58.88 76.8s-94.72 12.8-102.4 30.72c-7.68 20.48 10.24 25.6 25.6 25.6s28.16-5.12 35.84-23.040zM325.12 734.72h238.080v-76.8h-143.36v-40.96h120.32v-61.44h-117.76v-46.080h140.8v-61.44h-238.080zM803.84 780.8c-117.76 0-209.92-94.72-209.92-209.92 0-51.2 17.92-97.28 48.64-133.12-2.56 0-2.56-2.56-5.12-2.56 0 0-33.28 20.48-64-17.92s-199.68-212.48-199.68-212.48-28.16-35.84 10.24-71.68c38.4-35.84 74.24 0 74.24 0l204.8 212.48c0 0 25.6 20.48 15.36 53.76 0 0 2.56 0 2.56 2.56 35.84-25.6 76.8-40.96 125.44-40.96 117.76 0 212.48 94.72 212.48 209.92-2.56 115.2-97.28 209.92-215.040 209.92zM803.84 414.72c-84.48 0-153.6 69.12-153.6 153.6s69.12 153.6 153.6 153.6c84.48 0 153.6-69.12 153.6-153.6s-66.56-153.6-153.6-153.6zM706.56 486.4c0 0-35.84 197.12 174.080 184.32 0 0-97.28 64-168.96-12.8s-28.16-156.16-5.12-171.52z" />
<glyph unicode="&#xe61a;" glyph-name="social" d="M499.2 762.88c-69.12 0-386.56 0-386.56 0s-79.36-7.68-79.36-92.16c0-94.72 0-245.76 0-245.76s-10.24-81.92 74.24-81.92h46.080l69.12-104.96-15.36 107.52h158.72c0 2.56 0 189.44 0 212.48 0 33.28 38.4 89.6 94.72 89.6 23.040 0 61.44 0 117.76 0v20.48c0 2.56 0 94.72-79.36 94.72zM284.16 668.16c0 0-20.48 0-35.84 0s-15.36-15.36-15.36-15.36v-33.28h43.52v-56.32h-43.52v-158.72h-64v156.16h-33.28v56.32h35.84c0 0 0 25.6 0 56.32 0 71.68 115.2 48.64 115.2 48.64v-53.76zM903.68 627.2c0 0-345.6 0-422.4 0-87.040 0-87.040-87.040-87.040-87.040v-215.040c0-99.84 94.72-89.6 94.72-89.6h312.32l-12.8-102.4 74.24 99.84h48.64c79.36 0 79.36 92.16 79.36 92.16s0 110.080 0 199.68c0 102.4-87.040 102.4-87.040 102.4zM965.12 350.72c0 0 0-92.16-79.36-92.16h-38.4l-28.16-48.64 5.12 51.2h-309.76c0 0-94.72-10.24-94.72 89.6v163.84c0 0 0 87.040 87.040 87.040 76.8 0 371.2 0 371.2 0s87.040 0 87.040-102.4c0-89.6 0-148.48 0-148.48zM811.52 529.92c0 0-30.72 33.28-74.24 12.8-40.96-20.48-30.72-69.12-30.72-69.12s-66.56-5.12-125.44 64c0 0-7.68 12.8-10.24-10.24l-5.12 2.56c0 0-10.24-38.4 23.040-66.56 0 0-20.48-2.56-25.6 5.12 0 0-5.12-46.080 43.52-56.32 0 0 7.68-7.68-17.92-5.12 0 0-10.24-20.48 46.080-46.080 0 0-23.040-35.84-79.36-17.92 0 0 5.12-35.84 97.28-33.28s171.52 71.68 168.96 181.76c0 0 17.92 12.8 28.16 28.16h-23.040l15.36 28.16-30.72-17.92z" />
<glyph unicode="&#xe61b;" glyph-name="videos" d="M371.2 519.68c-35.84 0-64-28.16-64-64s28.16-64 64-64c35.84 0 64 28.16 64 64s-28.16 64-64 64zM371.2 414.72c-20.48 0-35.84 15.36-35.84 35.84s15.36 35.84 35.84 35.84c20.48 0 35.84-15.36 35.84-35.84 2.56-17.92-15.36-35.84-35.84-35.84zM366.080 545.28c51.2 0 94.72 43.52 94.72 94.72s-43.52 94.72-94.72 94.72-94.72-43.52-94.72-94.72c0-53.76 43.52-94.72 94.72-94.72zM184.32 552.96c-51.2 0-94.72-43.52-94.72-94.72s43.52-94.72 94.72-94.72c51.2 0 94.72 43.52 94.72 94.72s-43.52 94.72-94.72 94.72zM366.080 363.52c-51.2 0-94.72-43.52-94.72-94.72s43.52-94.72 94.72-94.72 94.72 40.96 94.72 94.72c0 51.2-40.96 94.72-94.72 94.72zM460.8 458.24c0-51.2 43.52-94.72 94.72-94.72s94.72 43.52 94.72 94.72-43.52 94.72-94.72 94.72c-51.2 0-94.72-43.52-94.72-94.72zM993.28 128c-2.56 2.56-104.96-33.28-174.080 30.72-69.12 61.44-99.84 181.76-104.96 212.48 0 2.56-2.56 12.8-2.56 15.36 2.56 23.040 7.68 46.080 7.68 69.12 0 192-156.16 348.16-348.16 348.16s-348.16-156.16-348.16-348.16c0-192 156.16-348.16 348.16-348.16 143.36-2.56 268.8 84.48 320 212.48 0 0 2.56 7.68 7.68-7.68 12.8-30.72 33.28-133.12 120.32-194.56 69.12-48.64 181.76-12.8 181.76-10.24-2.56 10.24-2.56 12.8-7.68 20.48zM368.64 135.68c-176.64 0-320 143.36-320 320s143.36 317.44 320 317.44 320-143.36 320-320-143.36-317.44-320-317.44z" />
<glyph unicode="&#xe61c;" glyph-name="phone" d="M419.84 796.16c10.24-25.6 40.96-130.56 51.2-158.72 10.24-25.6 0-61.44-25.6-69.12s-53.76-17.92-61.44-20.48c-7.68-2.56-12.8 0-7.68-17.92s166.4-215.040 174.080-225.28c7.68-10.24 12.8-5.12 20.48 0s23.040 20.48 30.72 30.72c7.68 12.8 35.84 30.72 53.76 12.8s125.44-110.080 138.24-125.44 30.72-46.080 10.24-69.12c-15.36-17.92-71.68-64-81.92-74.24-20.48-17.92-66.56-25.6-115.2 0-56.32 33.28-143.36 87.040-266.24 245.76-117.76 148.48-128 335.36-128 373.76s15.36 69.12 48.64 81.92c17.92 7.68 71.68 23.040 87.040 30.72 15.36 17.92 58.88 17.92 71.68-15.36z" />
<glyph unicode="&#xe61d;" glyph-name="c-phone" d="M607.573 372.907c-11.947 11.947-30.72-1.707-35.84-8.533-5.12-8.533-15.36-17.067-20.48-20.48s-8.533-6.827-13.653 0c-5.12 6.827-112.64 138.24-116.053 150.187s-1.707 10.24 5.12 11.947c5.12 1.707 23.893 8.533 40.96 13.653s22.187 27.307 17.067 46.080c-6.827 17.067-25.6 87.040-34.133 105.813-8.533 22.187-37.547 22.187-47.787 17.067s-46.080-15.36-58.027-20.48c-20.48-8.533-32.427-29.013-32.427-54.613s5.12-150.187 85.333-249.173c83.627-104.107 141.653-141.653 177.493-163.84 30.72-18.773 63.147-11.947 76.8 0 6.827 6.827 46.080 37.547 54.613 49.493 13.653 15.36 1.707 35.84-6.827 46.080s-81.92 64.853-92.16 76.8zM512 876.373c-244.053 0-440.32-196.267-440.32-440.32s197.973-440.32 440.32-440.32c244.053 0 440.32 197.973 440.32 440.32 0 244.053-196.267 440.32-440.32 440.32zM512 33.28c-221.867 0-402.773 180.907-402.773 402.773 0 223.573 180.907 402.773 402.773 402.773s402.773-180.907 402.773-402.773c0-221.867-180.907-402.773-402.773-402.773z" />
<glyph unicode="&#xe61e;" glyph-name="c-star" d="M512 884.907c-244.053 0-440.32-197.973-440.32-440.32 0-244.053 197.973-440.32 440.32-440.32s440.32 197.973 440.32 440.32c0 242.347-196.267 440.32-440.32 440.32zM512 41.813c-221.867 0-402.773 180.907-402.773 402.773s180.907 402.773 402.773 402.773 402.773-180.907 402.773-402.773c0-223.573-180.907-402.773-402.773-402.773zM512 760.32l97.28-197.973 218.453-32.427-157.013-153.6 37.547-216.747-196.267 102.4-196.267-102.4 37.547 216.747-157.013 153.6 218.453 32.427z" />
<glyph unicode="&#xe61f;" glyph-name="star" d="M512 911.36l145.92-296.96 327.68-48.64-235.52-230.4 56.32-327.68-294.4 153.6-291.84-153.6 53.76 327.68-235.52 230.4 327.68 48.64z" />
<glyph unicode="&#xe900;" glyph-name="blog" d="M378.88 209.92c0-69.279-56.161-125.44-125.44-125.44s-125.44 56.161-125.44 125.44c0 69.279 56.161 125.44 125.44 125.44s125.44-56.161 125.44-125.44zM501.76 158.72c0 0-23.040 140.8-102.4 222.72-81.92 81.92-197.12 79.36-197.12 79.36-40.96 0-71.68 33.28-71.68 71.68v0c0 40.96 33.28 71.68 71.68 71.68 0 0 184.32-12.8 294.4-122.88 128-128 151.040-325.12 151.040-325.12 0-40.96-33.28-71.68-71.68-71.68v0c-40.96 2.56-74.24 33.28-74.24 74.24zM742.4 158.72c0 0-20.48 235.52-161.28 378.88-174.080 174.080-376.32 151.040-376.32 151.040-40.96 0-71.68 33.28-71.68 71.68v0c0 40.96 33.28 71.68 71.68 71.68 0 0 281.6 17.92 481.28-181.76 230.4-230.4 204.8-491.52 204.8-491.52 0-40.96-33.28-71.68-71.68-71.68v0c-46.080 0-76.8 30.72-76.8 71.68z" />
<glyph unicode="&#xe901;" glyph-name="c-blog" d="M512 883.2c-244.053 0-440.32-197.973-440.32-440.32s196.267-440.32 440.32-440.32c244.053 0 440.32 197.973 440.32 440.32s-196.267 440.32-440.32 440.32zM512 40.107c-221.867 0-402.773 180.907-402.773 402.773s180.907 402.773 402.773 402.773c221.867 0 402.773-180.907 402.773-402.773s-180.907-402.773-402.773-402.773zM453.973 285.867c0-46.186-37.441-83.627-83.627-83.627s-83.627 37.441-83.627 83.627c0 46.186 37.441 83.627 83.627 83.627s83.627-37.441 83.627-83.627zM535.893 251.733c0 0-15.36 93.867-68.267 148.48-54.613 54.613-131.413 52.907-131.413 52.907-27.307 0-47.787 22.187-47.787 47.787v0c0 27.307 22.187 47.787 47.787 47.787 0 0 122.88-8.533 196.267-81.92 85.333-85.333 100.693-216.747 100.693-216.747 0-27.307-22.187-47.787-47.787-47.787v0c-27.307 0-49.493 22.187-49.493 49.493zM696.32 251.733c0 0-13.653 157.013-107.52 252.587-116.053 116.053-250.88 100.693-250.88 100.693-27.307 0-47.787 22.187-47.787 47.787v0c0 27.307 22.187 47.787 47.787 47.787 0 0 187.733 11.947 320.853-121.173 153.6-153.6 136.533-327.68 136.533-327.68 0-27.307-22.187-47.787-47.787-47.787v0c-29.013-1.707-51.2 20.48-51.2 47.787z" />
<glyph unicode="&#xe902;" glyph-name="c-reviewguard" d="M503.467 883.2c-242.347 0-440.32-197.973-440.32-440.32s197.973-440.32 440.32-440.32 440.32 197.973 440.32 440.32-196.267 440.32-440.32 440.32zM503.467 40.107c-221.867 0-402.773 180.907-402.773 402.773s180.907 402.773 402.773 402.773 402.773-180.907 402.773-402.773-180.907-402.773-402.773-402.773zM556.373 567.467c23.893-13.653 61.44-10.24 85.333-6.827l-40.96 6.827-97.28 197.973-97.28-197.973-42.667-6.827c23.893-3.413 61.44-6.827 83.627 6.827 35.84 22.187 56.32 68.267 56.32 68.267v0c0 0 17.067-46.080 52.907-68.267zM820.907 535.040l-157.013 22.187c0-34.133 0-170.667-25.6-213.333-20.48-32.427-75.093-69.973-109.227-92.16l168.96-88.747-37.547 218.453 160.427 153.6zM365.227 345.6c-25.6 42.667-25.6 177.493-25.6 211.627l-153.6-22.187 158.72-153.6-37.547-218.453 167.253 88.747c-32.427 20.48-88.747 59.733-109.227 93.867zM503.467 659.627c0 0 20.48-52.907 59.733-76.8s116.053-1.707 116.053-1.707 5.12-192.853-27.307-245.76-148.48-119.467-148.48-119.467v0c0 0-116.053 64.853-148.48 119.467s-27.307 245.76-27.307 245.76 76.8-20.48 116.053 1.707 59.733 76.8 59.733 76.8v0zM503.467 635.733c0 0-20.48-46.080-56.32-68.267s-107.52-1.707-107.52-1.707-3.413-172.373 25.6-220.16c29.013-49.493 136.533-109.227 136.533-109.227v0c0 0 107.52 59.733 136.533 109.227s25.6 220.16 25.6 220.16-71.68-18.773-107.52 1.707c-35.84 22.187-52.907 68.267-52.907 68.267v0z" />
<glyph unicode="&#xe903;" glyph-name="reviewguard" d="M578.56 604.16c35.84-20.48 92.16-15.36 128-10.24l-61.44 7.68-145.92 296.96-145.92-296.96-64-10.24c35.84-5.12 92.16-10.24 125.44 10.24 53.76 33.28 84.48 102.4 84.48 102.4v0c0 0 25.6-69.12 79.36-99.84zM975.36 555.52l-235.52 33.28c0-51.2 0-256-38.4-320-30.72-48.64-112.64-107.52-163.84-138.24l253.44-133.12-56.32 327.68 240.64 230.4zM291.84 268.8c-38.4 64-38.4 266.24-38.4 317.44l-230.4-33.28 238.080-230.4-53.76-325.12 250.88 133.12c-51.2 30.72-135.68 87.040-166.4 138.24zM499.2 739.84c0 0 30.72-79.36 89.6-115.2s174.080-2.56 174.080-2.56 7.68-289.28-40.96-368.64-222.72-179.2-222.72-179.2v0c0 0-174.080 97.28-222.72 179.2s-40.96 368.64-40.96 368.64 115.2-30.72 174.080 2.56 89.6 115.2 89.6 115.2v0zM499.2 704c0 0-30.72-69.12-84.48-102.4s-158.72-2.56-158.72-2.56-7.68-256 35.84-330.24 204.8-163.84 204.8-163.84v0c0 0 161.28 89.6 204.8 163.84s38.4 330.24 38.4 330.24-107.52-28.16-161.28 2.56-79.36 102.4-79.36 102.4v0z" />
</font>
</defs>
</svg>
