<?xml version="1.0" encoding="utf-8"?>
<!-- Generator: Adobe Illustrator 19.0.1, SVG Export Plug-In . SVG Version: 6.00 Build 0)  -->
<svg version="1.1" id="Layer_1" xmlns="http://www.w3.org/2000/svg" xmlns:xlink="http://www.w3.org/1999/xlink" x="0px" y="0px"
	 viewBox="0 0 100 100" style="enable-background:new 0 0 100 100;" xml:space="preserve">
<style type="text/css">
	.st0{display:none;}
	.st1{display:inline;fill:#7F3F98;}
	.st2{display:inline;}
</style>
<g id="Layer_5" class="st0">
	<rect x="-1" y="-0.8" class="st1" width="102.3" height="102"/>
</g>
<g id="Layer_3" class="st0">
	<path class="st2" d="M26.3,83l1.8,1.5c0,0-2.7,5.9-13.6,8.4C10.7,93.8,3,94,3,94s0.1-6.2,0.8-10c2.3-13.1,9-15,9-15l0.9,1.7
		c0,0-3.4,5-3.8,9.3c-0.2,1.9-0.6,7.7-0.6,7.7s5.1,0.3,8.2-0.6C23.6,85.4,26.3,83,26.3,83z"/>
	<path class="st2" d="M83.7,37.2c-7.1,10.6-32,29.5-32,29.5l0.5,15.7c0,0-11.3,10-12.3,9.3c-1.3-1-1.2-13.3-4-13.6
		c-2.1-0.2-3.4,2.5-7.1,2.2c-2.5-0.2-11.9-9.9-12.1-12.4c-0.2-2.5,1.4-3.8,2.1-5.8c0.1-0.4,0.8-1.4,0-1.8
		c-3.2-1.6-13.1-2.3-13.1-2.9c0-2.7,9-12.1,9-12.1h16.1c0,0,18.8-23.2,26.3-29.7C70.8,3.5,93.5,3.5,93.5,3.5S94.4,21.2,83.7,37.2z
		 M66,24.2c-3.9,0-7.1,3.2-7.1,7.1s3.2,7.1,7.1,7.1s7.1-3.2,7.1-7.1S69.9,24.2,66,24.2z"/>
</g>
<g id="Layer_4">
	<g id="Layer_6">
		<path d="M13,57c-0.6-0.4,6.9-6.1,9.6-5.8c7.7,0.9,10.8,15.1,11,15.2c0.2,0,1.2-0.4,4.8-6.3c8.5-14,23.1-28.4,32.9-36
			c6.8-5.2,11.8-8.8,12.4-8.8c1,0,3.1,1.4,3.1,2.3c0,0.8-13.3,10.4-26.6,27.6c-8.8,11.4-10,14.4-14.2,21.6c-3.1,5.4-5.5,9.5-5.8,9.8
			c-0.2,0.2-0.3,0.3-0.5,0.5c-1.9,1.5-9.4,6.9-10.3,6.9C28.3,84.1,25.5,65.3,13,57z"/>
	</g>
</g>
</svg>
