<?xml version="1.0" encoding="utf-8"?>
<!-- Generator: Adobe Illustrator 19.0.1, SVG Export Plug-In . SVG Version: 6.00 Build 0)  -->
<svg version="1.1" id="Layer_1" xmlns="http://www.w3.org/2000/svg" xmlns:xlink="http://www.w3.org/1999/xlink" x="0px" y="0px"
	 viewBox="0 0 100 100" style="enable-background:new 0 0 100 100;" xml:space="preserve">
<style type="text/css">
	.st0{display:none;}
	.st1{display:inline;fill:#7F3F98;}
	.st2{display:inline;}
	.st3{display:inline;fill:#ED1C24;stroke:#ED1C24;stroke-width:0.25;stroke-miterlimit:10;}
</style>
<g id="Layer_5" class="st0">
	<rect x="-1" y="-0.8" class="st1" width="102.3" height="102"/>
</g>
<g id="Layer_3" class="st0">
	<path class="st2" d="M26.3,83l1.8,1.5c0,0-2.7,5.9-13.6,8.4C10.7,93.8,3,94,3,94s0.1-6.2,0.8-10c2.3-13.1,9-15,9-15l0.9,1.7
		c0,0-3.4,5-3.8,9.3c-0.2,1.9-0.6,7.7-0.6,7.7s5.1,0.3,8.2-0.6C23.6,85.4,26.3,83,26.3,83z"/>
	<path class="st2" d="M83.7,37.2c-7.1,10.6-32,29.5-32,29.5l0.5,15.7c0,0-11.3,10-12.3,9.3c-1.3-1-1.2-13.3-4-13.6
		c-2.1-0.2-3.4,2.5-7.1,2.2c-2.5-0.2-11.9-9.9-12.1-12.4c-0.2-2.5,1.4-3.8,2.1-5.8c0.1-0.4,0.8-1.4,0-1.8
		c-3.2-1.6-13.1-2.3-13.1-2.9c0-2.7,9-12.1,9-12.1h16.1c0,0,18.8-23.2,26.3-29.7C70.8,3.5,93.5,3.5,93.5,3.5S94.4,21.2,83.7,37.2z
		 M66,24.2c-3.9,0-7.1,3.2-7.1,7.1s3.2,7.1,7.1,7.1s7.1-3.2,7.1-7.1S69.9,24.2,66,24.2z"/>
</g>
<g id="Layer_4" class="st0">
	<g id="Layer_6" class="st2">
		<path d="M27,72c-0.6-0.4,6.9-6.1,9.6-5.8c7.7,0.9,10.8,15.1,11,15.2c0.2,0,1.2-0.4,4.8-6.3c8.5-14,23.1-28.4,32.9-36
			c6.8-5.2,11.8-8.8,12.4-8.8c1,0,3.1,1.4,3.1,2.3c0,0.8-13.3,10.4-26.6,27.6c-8.8,11.4-10,14.4-14.2,21.6c-3.1,5.4-5.5,9.5-5.8,9.8
			c-0.2,0.2-0.3,0.3-0.5,0.5c-1.9,1.5-9.4,6.9-10.3,6.9C42.3,99.1,39.5,80.3,27,72z"/>
	</g>
</g>
<g id="Layer_7">
	<path d="M22.3,15.3c-1.2,1,3.2-2.5,5.9,0S43.3,31.1,41.7,29c-1.6-2.1,3.5,4.4,0.4,7.2c-2.5,2.2-7.5,5.8-7.8,7.1s6.3,10.6,8.9,13.4
		s10.9,8.2,12.7,8.2s5.1-5.6,6.9-7.4s5.3-2.1,7.4-0.3c2.1,1.8,11.9,11.5,14.3,13.8s0.7,5-1,6.9c-1.8,1.9-5.7,5.3-5.7,5.3l-3.6-3.6
		l-3.2,5c0,0-26.8,0-41.2-17.6c-16.1-19.6-16-39.5-16-39.5l6.3-2.2l-3.8-3.8L22.3,15.3z"/>
</g>
<g id="Layer_8" class="st0">
	<line class="st3" x1="16.2" y1="21.6" x2="77.7" y2="83.3"/>
</g>
</svg>
